<?xml version="1.0" encoding="UTF-8" standalone="no"?>
<svg width="665px" height="70px" viewBox="0 0 665 70" version="1.1" xmlns="http://www.w3.org/2000/svg" xmlns:xlink="http://www.w3.org/1999/xlink" xmlns:sketch="http://www.bohemiancoding.com/sketch/ns">
    <title>namr.svg</title>
    <description>Created with Sketch (http://www.bohemiancoding.com/sketch)</description>
    <defs></defs>
    <g id="Page 1" stroke="none" stroke-width="1" fill="none" fill-rule="evenodd">
        <g id="namr.svg" transform="translate(-136.000000, -245.000000)" fill="#fff">
            <path d="M138.21875,245.90625 L165.734375,245.90625 L165.734375,294.140625 Z M179.1875,245.90625 L191.515625,245.90625 L191.515625,315 L179.1875,315 Z M205.859375,245.90625 L219.546875,245.90625 L219.546875,315 L205.859375,315 Z M233.75,245.90625 L260.421875,245.90625 L233.75,274.359375 Z M279.078125,245.90625 L287.515625,245.90625 L287.515625,315 L280.53125,315 L250.765625,274.359375 Z M301.859375,245.90625 L309.546875,245.90625 L309.546875,258.140625 L330.3125,258.140625 L330.3125,315 L301.859375,315 Z M365.515625,245.90625 L372.828125,245.90625 L372.828125,315 L344.84375,315 L344.84375,258.140625 L365.515625,258.140625 Z M387.171875,245.90625 L400.390625,245.90625 L400.390625,315 L387.171875,315 Z M415.53125,245.90625 L443.046875,245.90625 L443.046875,294.140625 Z M456.5,245.90625 L496.390625,245.90625 L496.390625,315 L456.5,315 Z M511.53125,245.90625 L539.046875,245.90625 L539.046875,294.140625 Z M552.5,245.90625 L564.828125,245.90625 L564.828125,315 L552.5,315 Z M579.171875,245.90625 L592.859375,245.90625 L592.859375,315 L579.171875,315 Z M607.0625,245.90625 L633.734375,245.90625 L607.0625,274.359375 Z M652.390625,245.90625 L660.828125,245.90625 L660.828125,315 L653.84375,315 L624.078125,274.359375 Z M675.171875,245.90625 L682.859375,245.90625 L682.859375,258.140625 L703.625,258.140625 L703.625,315 L675.171875,315 Z M738.828125,245.90625 L759.96875,245.90625 L735.3125,315 L718.15625,315 L718.15625,258.140625 L738.828125,258.140625 Z M776.28125,245.90625 L801,245.90625 L801,315 L800.75,315 Z M785.09375,315 L750.40625,315 L755.1875,300.796875 L780.640625,300.796875 Z M635.28125,315 L607.0625,315 L607.0625,291.890625 L613.953125,284.8125 Z M538.0625,315 L509.84375,315 L509.84375,265.921875 Z M442.0625,315 L413.84375,315 L413.84375,265.921875 Z M261.96875,315 L233.75,315 L233.75,291.890625 L240.640625,284.8125 Z M164.75,315 L136.53125,315 L136.53125,265.921875 Z M759.078125,288.890625 L767.984375,261.703125 L776.609375,288.890625 Z M759.078125,288.890625" id="Rectangle 1"></path>
        </g>
    </g>
</svg>